<?xml version="1.0" encoding="utf-8"?>
<!-- Generator: Adobe Illustrator 23.0.6, SVG Export Plug-In . SVG Version: 6.00 Build 0)  -->
<svg version="1.1" id="Layer_1" xmlns="http://www.w3.org/2000/svg" xmlns:xlink="http://www.w3.org/1999/xlink" x="0px" y="0px"
	 viewBox="0 0 352.2 60.4" style="enable-background:new 0 0 352.2 60.4;" xml:space="preserve">
<style type="text/css">
	.st0{fill:#62636C;}
	.st1{fill:#0345F6;}
</style>
<path class="st0" d="M29.4,50.7c-1.7,0.3-3.5,0.5-5.3,0.5c-4.8,0-8.2-1.3-10.3-4c-2-2.7-3-6.2-3-10.8c0-4.7,1.1-8.3,3.2-10.9
	s5.3-3.9,9.4-3.9c1.7,0,3.3,0.2,4.9,0.5c1.4,0.3,2.8,0.8,4.1,1.3l2.2-8.5c-3.9-1.6-8-2.4-12.2-2.3c-3.2-0.1-6.4,0.6-9.4,1.8
	c-2.7,1.1-5.1,2.8-7.1,5c-2,2.2-3.5,4.8-4.5,7.6c-1.1,3-1.6,6.2-1.6,9.4c0,3.2,0.4,6.4,1.4,9.5c0.9,2.8,2.3,5.4,4.2,7.6
	c2,2.2,4.4,3.9,7.1,5c3.2,1.2,6.7,1.9,10.1,1.8c2.4,0,4.9-0.2,7.3-0.7c1.8-0.3,3.6-0.8,5.3-1.6l-1.5-8.7C32.5,50,31,50.4,29.4,50.7z
	 M73.1,17.6c-1.6-1.7-3.5-2.9-5.7-3.6c-2.8-0.9-5.8-1.4-8.8-1.3c-2.7,0-5.5,0.2-8.2,0.7c-2,0.3-3.9,0.8-5.8,1.4l1.3,8.5
	c1.6-0.5,3.3-1,5-1.2c2.2-0.4,4.5-0.5,6.7-0.5c1.5,0,3,0.2,4.5,0.7c1.1,0.4,2.1,1.1,2.9,2c0.7,0.8,1.2,1.8,1.5,2.9
	c0.3,1.1,0.4,2.3,0.4,3.5v1.7c-1.3-0.3-2.7-0.6-4.1-0.7c-1.2-0.1-2.4-0.2-3.7-0.2c-2.4,0-4.8,0.2-7.2,0.7c-2.2,0.4-4.2,1.3-6,2.4
	c-1.7,1.1-3.1,2.6-4.1,4.4c-1.1,2-1.6,4.3-1.5,6.6c-0.1,2.4,0.4,4.7,1.3,6.9c0.8,1.8,2.1,3.4,3.7,4.5c1.7,1.2,3.7,2.1,5.8,2.5
	c2.5,0.5,5,0.8,7.5,0.8c3.7,0,7.4-0.2,11.1-0.7c3.3-0.5,5.7-0.9,7.3-1.3V30.6c0-2.5-0.3-5-0.9-7.4C75.6,21.2,74.6,19.2,73.1,17.6z
	 M66.9,51.3c-2.4,0.4-4.9,0.6-7.4,0.5c-2.2,0.1-4.4-0.4-6.3-1.4c-1.6-0.9-2.4-2.7-2.3-5.2c0-1.1,0.3-2.2,0.9-3.2
	c0.6-0.9,1.4-1.6,2.3-2c1-0.5,2.1-0.8,3.2-1c1.2-0.2,2.3-0.3,3.5-0.3c1.2,0,2.4,0.1,3.7,0.3c0.9,0.1,1.7,0.3,2.5,0.5V51.3z
	 M109.2,13.3c-0.9-0.1-1.9-0.3-2.8-0.4s-1.7-0.1-2.4-0.1c-3.4,0-6.8,0.3-10.1,1c-2.6,0.5-5.1,1.2-7.6,2.1v43.3h10.5V22.8
	c0.9-0.3,1.8-0.5,2.7-0.6c1.2-0.2,2.5-0.3,3.7-0.4c1.8,0,3.6,0.1,5.3,0.5c1.2,0.2,2.4,0.5,3.6,0.9l1.8-8.9c-0.7-0.2-1.4-0.4-2.1-0.6
	C111,13.6,110.1,13.4,109.2,13.3z M148.4,22c-0.9,2.9-1.8,5.9-2.8,8.8c-1,2.9-1.9,5.8-2.9,8.5s-1.9,5.2-2.8,7.4
	c-0.9-2.2-1.8-4.7-2.8-7.4s-2-5.6-3-8.5s-1.9-5.9-2.7-8.8s-1.6-5.7-2.2-8.2H118c2.4,8.4,5.1,16.8,8.3,24.9c3.1,7.8,6.1,14.6,9,20.6
	h9c2.9-6,5.9-12.9,9-20.6c3.2-8.2,6-16.5,8.3-24.9h-11C150,16.3,149.3,19.1,148.4,22z M234.4,13.3c-0.9-0.1-1.9-0.3-2.8-0.4
	s-1.7-0.1-2.4-0.1c-3.4,0-6.8,0.3-10.1,1c-2.6,0.5-5.1,1.3-7.6,2.1v43.3H222V22.8c0.9-0.3,1.8-0.5,2.7-0.6c1.2-0.2,2.5-0.3,3.7-0.4
	c1.8,0,3.6,0.1,5.4,0.5c1.2,0.2,2.4,0.5,3.6,0.9l1.8-8.9c-0.5-0.2-1.2-0.4-2.1-0.6S235.3,13.4,234.4,13.3L234.4,13.3z M267.9,50.7
	c-1.7,0.4-3.4,0.6-5.1,0.6c-2.8,0-4.8-0.8-5.9-2.3s-1.7-4.2-1.7-7.8V22.5h16.2v-8.8h-16.2V0l-10.5,1.7v39.4c0,2.7,0.2,5.4,0.8,8
	c0.4,2.2,1.4,4.2,2.7,6c1.3,1.7,3.1,3,5.2,3.8c2.6,0.9,5.4,1.4,8.1,1.3c2.4,0,4.7-0.2,7-0.8c1.6-0.4,3.2-1,4.8-1.6l-1.7-8.4
	C270.3,50,269.1,50.3,267.9,50.7L267.9,50.7z M296.9,12.7c-2.7,0-5.4,0.5-7.9,1.5c-2.6,1-4.9,2.6-6.8,4.5c-2.1,2.2-3.7,4.7-4.7,7.5
	c-1.2,3.4-1.9,6.9-1.8,10.5c0,3.2,0.4,6.4,1.4,9.4c0.9,2.8,2.3,5.3,4.3,7.5c2,2.2,4.5,3.9,7.3,5c3.3,1.2,6.9,1.9,10.4,1.8
	c1.5,0,3.1-0.1,4.6-0.3c1.5-0.2,2.9-0.4,4.2-0.7c1.2-0.2,2.3-0.5,3.5-0.9c0.8-0.2,1.6-0.6,2.4-0.9l-1.4-8.6c-1.6,0.6-3.3,1.1-5,1.5
	c-2.3,0.5-4.6,0.7-7,0.7c-4.4,0-7.7-1-10-3c-2.4-2.2-3.8-5.2-3.9-8.5h30c0-0.6,0.1-1.2,0.1-2s0-1.4,0-2c0-7.7-1.8-13.5-5.3-17.4
	S303,12.6,296.9,12.7L296.9,12.7z M286.7,32c0.2-1.3,0.5-2.7,1-3.9c0.4-1.2,1.1-2.4,2-3.4c0.9-1,1.9-1.8,3.1-2.4
	c1.3-0.6,2.8-1,4.3-0.9c1.4,0,2.8,0.2,4,0.8c1.1,0.5,2.1,1.3,2.9,2.3c0.8,1,1.4,2.2,1.8,3.4c0.4,1.3,0.6,2.7,0.6,4.1H286.7z
	 M350.1,13.8c-0.9-0.2-1.8-0.4-2.7-0.5s-1.9-0.3-2.8-0.4s-1.7-0.1-2.4-0.1c-3.4,0-6.8,0.3-10.1,1c-2.6,0.5-5.1,1.3-7.6,2.1v43.3H335
	V22.8c0.9-0.3,1.8-0.5,2.7-0.6c1.2-0.2,2.5-0.3,3.7-0.4c1.8,0,3.6,0.1,5.4,0.5c1.2,0.2,2.4,0.5,3.6,0.9l1.8-8.9
	C351.7,14.2,351,14,350.1,13.8L350.1,13.8z"/>
<path class="st1" d="M199.1,18.4c-3.5-3.9-8.4-5.8-14.7-5.8c-2.7,0-5.3,0.5-7.8,1.5c-2.6,1-4.9,2.6-6.8,4.5
	c-2.1,2.2-3.7,4.7-4.8,7.5c-1.3,3.4-1.9,6.9-1.8,10.5c0,3.2,0.4,6.4,1.4,9.4c0.9,2.8,2.3,5.3,4.3,7.5c2,2.2,4.5,3.9,7.3,5
	c3.3,1.2,6.9,1.9,10.4,1.8c1.5,0,3.1-0.1,4.6-0.3c1.5-0.2,2.9-0.4,4.2-0.7s2.5-0.5,3.5-0.9c0.8-0.2,1.6-0.5,2.4-0.9l0,0l-1.3-8.6
	l0,0c-1.6,0.6-3.3,1.1-5,1.5c-2.3,0.5-4.6,0.7-7,0.7c-4.4,0-7.7-1-10-3c-2.4-2.2-3.8-5.2-3.9-8.5c-0.1-1-0.1-2.2-0.1-3.9
	c0-1.3,0.1-2.6,0.2-3.9c0.2-1.3,0.5-2.7,1-3.9c0.4-1.2,1.1-2.4,1.9-3.4c1.8-2.2,4.5-3.4,7.4-3.3c1.4,0,2.8,0.2,4.1,0.8
	c1.1,0.5,2.1,1.3,2.9,2.3c0.8,1,1.4,2.2,1.8,3.4c0.4,1.3,0.6,2.7,0.6,4.1l0,0h-3.6l0,0c-1.1-1.4-2.8-2.3-4.6-2.3h-3.4l0,0v2.4l0,0
	h-3c-0.6,0-1.2,0.4-1.3,1c-0.1,0.7,0.4,1.3,1.1,1.4c0.1,0,0.1,0,0.2,0h2.9l0,0v2.5l0,0h-3c-0.6,0-1.2,0.4-1.3,1.1
	c-0.1,0.7,0.4,1.3,1.1,1.4c0.1,0,0.1,0,0.2,0h3.1l0,0V42l0,0h3.4c1.8,0,3.6-0.9,4.7-2.3h14l0,0c0-0.6,0.1-1.2,0.1-1.9s0-1.4,0-2
	C204.3,28.1,202.6,22.3,199.1,18.4z"/>
</svg>
